<?xml version="1.0" standalone="no"?>
<!DOCTYPE svg PUBLIC "-//W3C//DTD SVG 20010904//EN"
 "http://www.w3.org/TR/2001/REC-SVG-20010904/DTD/svg10.dtd">
<svg version="1.0" xmlns="http://www.w3.org/2000/svg"
 width="402.000000pt" height="402.000000pt" viewBox="0 0 402.000000 402.000000"
 preserveAspectRatio="xMidYMid meet">
<metadata>
Created by potrace 1.14, written by Peter Selinger 2001-2017
</metadata>
<g transform="translate(0.000000,402.000000) scale(0.100000,-0.100000)"
fill="#000000" stroke="none">
<path d="M833 3458 c-4 -7 -28 -14 -52 -15 -24 0 -47 -7 -51 -13 -4 -7 -13 -9
-19 -6 -6 4 -11 2 -11 -4 0 -6 -4 -9 -9 -5 -5 3 -16 -2 -24 -10 -9 -8 -20 -15
-26 -15 -6 0 -11 -5 -11 -11 0 -5 -4 -8 -9 -4 -5 3 -12 1 -16 -5 -4 -6 -11 -7
-17 -4 -6 4 -8 3 -5 -3 4 -6 -11 -26 -33 -46 -22 -19 -40 -41 -40 -47 0 -6
-11 -23 -25 -38 -15 -16 -23 -33 -19 -44 3 -10 0 -18 -6 -18 -6 0 -8 -4 -5
-10 3 -5 2 -10 -3 -10 -5 0 -12 -9 -15 -20 -3 -11 -1 -20 5 -20 5 0 6 -6 1
-12 -4 -7 -8 -19 -10 -27 -1 -8 -6 -17 -10 -20 -5 -3 -9 -148 -8 -321 0 -240
-3 -318 -12 -328 -7 -7 -13 -31 -13 -52 0 -21 -5 -40 -11 -42 -9 -3 -15 -22
-18 -51 -1 -5 -5 -5 -11 -2 -5 3 -10 -1 -10 -9 0 -9 -6 -16 -14 -16 -8 0 -18
-9 -21 -20 -3 -11 -9 -20 -13 -21 -4 -1 -20 -2 -35 -4 -16 -1 -33 -8 -37 -15
-5 -8 -35 -13 -91 -14 l-84 -1 0 -164 0 -164 25 -4 c14 -2 30 -10 36 -18 6 -8
14 -12 18 -8 11 11 110 2 126 -12 8 -7 21 -10 28 -8 6 3 12 -2 12 -11 0 -9 8
-16 20 -16 11 0 24 -8 27 -17 4 -10 17 -32 29 -48 14 -18 24 -48 25 -72 2 -23
6 -40 10 -37 14 8 15 -24 14 -343 -1 -177 3 -319 7 -317 4 3 9 -1 9 -8 1 -7 2
-28 4 -45 1 -18 8 -40 16 -49 8 -10 13 -25 11 -36 -2 -10 2 -17 8 -16 7 2 14
-7 16 -19 2 -12 15 -33 29 -47 14 -14 25 -35 25 -46 0 -12 5 -18 10 -15 6 3
13 -1 16 -10 4 -9 13 -14 21 -11 7 3 16 -1 19 -9 4 -8 12 -15 19 -15 7 0 16
-7 19 -16 3 -9 12 -14 18 -12 7 3 21 -3 31 -13 10 -9 26 -15 36 -12 10 2 25
-2 33 -10 10 -10 33 -15 73 -14 39 1 60 -2 63 -11 2 -7 9 -9 15 -5 17 11 57
11 63 1 8 -13 104 -9 118 5 7 7 11 23 9 35 -2 16 1 21 9 16 10 -6 11 -4 1 7
-16 16 -17 33 -2 23 8 -4 8 0 0 15 -7 11 -8 21 -4 21 4 0 8 27 8 59 0 33 -3
57 -8 54 -4 -2 -7 0 -7 4 0 5 -38 9 -85 9 -64 1 -90 5 -104 18 -9 9 -21 13
-24 9 -8 -7 -77 28 -77 39 0 3 -9 10 -20 13 -11 4 -20 15 -20 26 0 11 -5 17
-10 14 -9 -6 -14 10 -13 42 1 7 -3 10 -8 7 -5 -3 -10 1 -11 8 0 7 -2 18 -2 23
-1 6 -5 16 -9 23 -5 6 -6 12 -2 12 3 0 -1 12 -8 28 -10 21 -13 99 -12 352 0
251 -2 328 -12 338 -11 11 -18 49 -14 74 0 4 -7 4 -16 1 -12 -5 -14 -3 -8 7 5
8 1 18 -10 27 -11 7 -15 13 -11 13 4 0 -8 16 -27 35 -19 19 -40 35 -46 35 -6
0 -11 4 -11 8 0 9 -64 37 -76 33 -4 -2 -11 4 -16 13 -5 9 -13 14 -18 11 -5 -3
-12 -1 -15 5 -5 8 -11 8 -20 0 -9 -7 -15 -7 -19 -1 -4 5 -15 8 -26 6 -15 -3
-20 2 -20 17 0 15 5 19 19 15 11 -2 32 3 48 12 15 9 43 16 61 15 18 0 30 1 28
4 -3 3 11 14 32 24 20 11 45 30 55 41 10 12 15 16 11 8 -5 -9 -3 -12 4 -7 7 4
12 14 12 23 0 9 3 13 7 10 7 -7 36 30 39 50 1 7 9 20 18 29 9 8 14 20 10 25
-3 6 1 20 8 32 11 18 14 87 13 354 0 276 2 334 14 338 8 3 11 8 8 12 -4 3 -2
14 3 24 7 12 7 20 0 24 -8 5 -7 11 1 21 6 8 8 14 3 14 -4 0 0 6 11 13 10 8 15
19 11 26 -4 6 -1 14 7 17 8 3 17 15 20 26 3 11 10 17 16 13 6 -3 11 1 11 10 0
9 4 14 9 10 6 -3 24 3 42 14 18 11 37 17 42 14 6 -3 7 -1 3 5 -8 13 -11 13
114 15 74 2 85 4 84 20 -1 9 3 17 8 17 7 0 8 14 5 35 -4 26 -3 34 6 29 8 -5 8
-3 0 7 -16 16 -17 33 -2 23 8 -4 8 0 0 15 -7 11 -9 21 -5 21 3 0 0 8 -7 17
-10 11 -10 14 -1 9 8 -5 12 -1 12 13 0 50 -4 51 -141 51 -91 0 -130 -4 -136
-12z"/>
<path d="M2944 3357 c1 -144 2 -145 117 -144 64 1 91 -3 109 -16 13 -9 28 -13
33 -10 6 3 16 -2 24 -12 7 -11 13 -15 13 -9 0 5 16 -9 35 -31 32 -36 40 -54
36 -78 -1 -5 3 -6 8 -3 11 7 21 -30 17 -66 -2 -16 2 -29 11 -32 8 -3 12 -9 9
-14 -2 -4 -1 -14 4 -22 4 -7 4 -24 -1 -37 -5 -14 -5 -23 1 -23 6 0 6 -9 1 -23
-5 -13 -5 -30 -1 -37 5 -8 7 -17 4 -21 -7 -12 -8 -189 -1 -196 4 -3 2 -14 -3
-24 -7 -12 -7 -20 0 -24 6 -4 7 -13 1 -24 -5 -9 -6 -22 -2 -29 7 -11 5 -91 -2
-99 -3 -2 -1 -20 3 -39 4 -18 4 -34 -1 -34 -10 0 1 -32 14 -41 5 -4 11 -17 12
-30 1 -13 3 -30 4 -37 0 -7 6 -10 11 -7 6 3 10 -3 10 -15 0 -28 94 -119 131
-127 15 -3 27 -10 26 -16 -1 -7 15 -11 40 -11 23 0 40 -3 37 -7 -6 -11 28 -22
63 -21 31 0 32 0 18 -22 -13 -19 -22 -22 -66 -18 -35 2 -49 0 -45 -7 4 -6 4
-11 -1 -12 -35 -3 -59 -12 -66 -24 -4 -9 -12 -13 -18 -10 -5 4 -12 -1 -15 -9
-3 -9 -10 -13 -15 -10 -5 3 -12 -2 -15 -10 -3 -9 -10 -13 -15 -10 -5 3 -9 0
-9 -5 0 -6 -6 -10 -12 -8 -8 1 -13 -7 -12 -20 1 -13 -4 -23 -12 -23 -8 0 -14
-6 -14 -14 0 -7 -6 -19 -13 -25 -8 -6 -13 -21 -12 -33 1 -13 -5 -29 -14 -36
-13 -11 -13 -12 -1 -6 11 5 10 1 -3 -13 -10 -12 -14 -23 -10 -26 10 -6 10 -48
0 -64 -4 -7 -3 -14 3 -18 6 -4 7 -12 1 -24 -5 -9 -6 -22 -2 -29 7 -12 5 -91
-3 -99 -3 -3 -1 -15 4 -27 4 -13 4 -29 -1 -39 -6 -9 -6 -17 -1 -17 4 0 6 -23
2 -50 -4 -28 -3 -53 1 -56 5 -3 4 -16 -1 -29 -5 -14 -6 -25 -1 -25 5 0 5 -16
1 -35 -5 -21 -4 -35 2 -35 5 0 6 -5 2 -11 -3 -6 -6 -28 -6 -50 1 -21 -4 -39
-9 -39 -6 0 -7 -4 -4 -10 3 -5 2 -10 -4 -10 -5 0 -8 -14 -6 -30 3 -19 -1 -33
-8 -36 -7 -2 -14 -14 -14 -26 -1 -12 -7 -24 -13 -28 -6 -4 -13 -16 -14 -26 -2
-10 -8 -18 -13 -17 -5 1 -25 -11 -44 -28 -23 -19 -45 -29 -67 -29 -20 0 -31
-4 -27 -10 7 -11 6 -11 -110 -13 -73 -2 -80 -4 -80 -22 1 -11 -4 -23 -10 -27
-6 -5 -6 -8 0 -8 6 0 10 -30 10 -70 0 -39 -3 -70 -6 -70 -3 0 -6 -7 -6 -15 0
-8 4 -12 9 -9 5 4 12 -4 15 -15 5 -20 12 -22 69 -20 38 1 64 7 64 13 0 6 5 4
10 -4 8 -12 10 -12 10 -1 0 11 3 11 15 1 12 -10 15 -10 15 0 0 10 3 10 15 0
12 -10 15 -10 15 2 0 11 13 14 53 13 28 -1 58 3 66 9 8 6 27 11 43 12 17 1 33
7 38 13 4 7 14 13 22 14 8 2 27 15 43 29 16 15 32 25 36 22 10 -6 43 27 47 47
2 8 10 20 19 27 9 6 13 12 8 12 -5 0 0 6 11 14 10 8 16 17 12 21 -3 4 2 15 13
26 11 11 17 25 13 30 -4 6 0 15 7 20 8 4 14 21 15 36 1 36 13 75 22 69 4 -2 7
144 6 326 0 244 3 331 12 335 6 2 11 22 11 45 0 22 6 44 13 48 7 4 9 13 6 19
-5 7 1 11 13 11 12 0 20 3 20 8 -4 21 2 43 9 38 5 -3 19 4 30 14 12 11 25 20
29 19 20 -3 34 2 28 11 -4 6 18 11 57 12 72 1 73 1 113 17 l30 11 -2 148 c-2
81 -3 154 -3 163 0 13 -13 16 -79 15 -56 0 -85 4 -98 14 -10 9 -27 15 -38 15
-27 0 -105 77 -105 104 0 11 -6 21 -14 21 -9 0 -12 8 -9 24 3 13 -2 36 -9 52
-12 23 -15 85 -13 319 0 160 -3 298 -7 308 -5 10 -5 17 1 17 12 0 2 32 -12 42
-9 5 -12 20 -16 76 -1 7 -5 11 -10 8 -4 -3 -8 5 -8 17 1 28 -23 78 -34 71 -5
-3 -9 2 -9 11 0 9 -13 30 -30 47 -16 16 -30 34 -30 39 0 5 -7 9 -16 9 -8 0
-12 5 -9 10 3 6 -3 10 -14 10 -12 0 -21 5 -21 10 0 6 -9 10 -20 10 -11 0 -20
4 -20 10 0 5 -18 14 -40 20 -22 6 -40 14 -40 19 0 4 -19 7 -42 7 -24 0 -43 5
-46 12 -3 9 -43 12 -141 12 l-137 0 0 -113z"/>
<path d="M1899 2828 c-1 -28 1 -196 2 -206 1 -4 1 -11 0 -17 -1 -5 -2 -74 -2
-152 0 -79 -2 -143 -5 -143 -3 0 -38 34 -78 75 -40 41 -76 71 -80 67 -4 -4 -6
-2 -4 3 5 17 -205 220 -227 220 -11 0 -29 -12 -41 -27 -11 -15 -24 -25 -27
-21 -4 3 -7 -1 -7 -10 0 -10 -8 -17 -17 -17 -9 0 -13 -3 -10 -7 4 -3 -8 -17
-25 -30 -18 -12 -28 -23 -22 -23 5 0 1 -5 -8 -11 -23 -13 -24 -59 -1 -59 9 0
14 -2 11 -5 -6 -6 181 -195 194 -195 5 0 6 -4 3 -10 -3 -5 1 -10 10 -10 9 0
14 -4 10 -9 -3 -5 4 -13 16 -16 11 -4 18 -9 16 -12 -7 -6 47 -61 56 -56 4 2 7
-2 7 -10 0 -8 7 -17 15 -21 44 -16 -9 -21 -241 -20 -142 1 -264 -1 -273 -3
-14 -3 -16 -21 -15 -116 1 -62 2 -118 3 -124 1 -10 41 -12 171 -10 94 1 170 0
170 -3 0 -3 46 -4 102 -2 l103 3 -62 -61 c-33 -33 -59 -60 -56 -60 2 0 -8 -11
-23 -25 -15 -14 -32 -25 -37 -25 -6 0 -8 -3 -4 -6 3 -4 -12 -22 -34 -40 -23
-19 -39 -34 -36 -34 2 0 -21 -26 -52 -58 -31 -31 -59 -56 -63 -54 -5 2 -8 -11
-8 -27 0 -22 5 -31 17 -31 9 0 13 -3 10 -6 -4 -4 10 -20 30 -35 20 -16 33 -29
29 -29 -4 0 -1 -7 8 -15 8 -8 20 -15 26 -15 6 0 9 -4 5 -9 -3 -5 4 -12 15 -16
11 -4 18 -11 15 -16 -14 -22 44 -7 61 16 10 14 25 25 33 25 8 0 12 2 9 5 -7 7
105 122 115 118 4 -2 7 3 7 11 0 9 7 16 16 16 8 0 14 3 11 8 -4 9 110 121 118
114 3 -3 5 2 5 11 0 10 7 17 16 17 8 0 12 5 9 10 -3 6 -2 10 4 10 7 0 10 -40
10 -108 0 -60 1 -113 2 -118 1 -5 1 -13 -1 -19 -4 -22 0 -218 5 -225 3 -5 1
-11 -3 -14 -13 -8 -2 -56 12 -57 16 -1 175 -1 211 0 l31 1 -1 266 c0 146 2
267 5 269 3 2 20 -10 38 -26 18 -16 29 -29 25 -29 -4 0 3 -9 15 -20 12 -11 26
-20 32 -20 6 0 9 -3 7 -7 -3 -5 1 -14 9 -21 8 -7 14 -10 14 -7 0 3 6 0 14 -7
8 -7 13 -14 11 -16 -5 -6 54 -62 65 -62 6 0 10 -3 8 -7 -5 -10 59 -72 67 -65
3 3 5 0 5 -6 0 -12 33 -50 47 -54 5 -2 7 -6 6 -10 -7 -20 46 -5 63 17 10 14
24 25 31 25 7 0 13 7 13 16 0 8 5 12 10 9 6 -3 10 -2 10 4 0 5 17 26 37 46 20
20 38 43 39 51 1 9 -79 98 -182 200 -101 101 -184 189 -184 195 0 5 5 7 11 3
10 -6 77 -6 207 -1 23 1 42 -1 42 -4 0 -3 12 -4 28 -2 62 7 212 7 215 0 1 -5
12 0 25 11 12 10 19 22 15 25 -3 4 -6 55 -7 114 l-1 108 -268 0 c-147 0 -267
3 -267 8 0 4 5 7 11 7 5 0 7 5 4 10 -3 6 4 14 17 19 13 6 20 10 16 10 -12 1
31 41 44 41 6 0 9 2 6 5 -7 8 55 73 65 68 4 -2 7 0 7 6 0 12 99 111 112 111 4
0 8 7 8 15 0 8 8 15 17 15 9 0 14 3 11 6 -4 3 7 18 22 33 16 15 28 34 27 42
-3 18 -147 163 -171 172 -11 4 -27 -1 -43 -13 -14 -11 -22 -20 -18 -20 4 0
-12 -16 -35 -35 -23 -19 -39 -35 -36 -35 3 0 -3 -9 -14 -20 -11 -11 -24 -20
-30 -20 -5 0 -10 -7 -10 -16 0 -8 -3 -14 -7 -12 -5 2 -20 -9 -35 -24 -15 -15
-25 -28 -23 -28 2 0 -7 -11 -21 -25 -14 -14 -30 -25 -36 -25 -6 0 -9 -3 -6 -6
3 -3 -12 -23 -35 -44 -22 -22 -43 -37 -46 -34 -3 2 -5 123 -6 267 l0 262 -127
3 c-127 3 -128 2 -129 -20z"/>
</g>
</svg>
